<?xml version="1.0" encoding="utf-8"?>
<!-- Generator: Adobe Illustrator 27.1.1, SVG Export Plug-In . SVG Version: 6.00 Build 0)  -->
<svg version="1.1" id="Capa_1" xmlns="http://www.w3.org/2000/svg" xmlns:xlink="http://www.w3.org/1999/xlink" x="0px" y="0px"
	 viewBox="0 0 350 350" style="enable-background:new 0 0 350 350;" xml:space="preserve">
<path d="M175,10C84,10,10,84,10,175s74,165,165,165s165-74,165-165S266,10,175,10z M303.7,157.5h-50.2c-1.8-36.2-9.2-72-21.7-99.3
	C270.1,76.9,297.8,113.7,303.7,157.5z M175,305c-16.2,0-39.9-44.3-43.5-112.6h87C214.9,260.8,191.2,305,175,305z M131.5,157.5
	C135.1,89.2,158.8,45,175,45s39.9,44.3,43.5,112.6H131.5z M118.2,58.2c-12.6,27.3-19.9,63.1-21.7,99.3H46.3
	C52.2,113.7,79.9,76.9,118.2,58.2z M46.3,192.5h50.2c1.8,36.2,9.2,72,21.7,99.3C79.9,273.1,52.2,236.3,46.3,192.5z M231.8,291.8
	c12.6-27.3,19.9-63.1,21.7-99.3h50.2C297.8,236.3,270.1,273.1,231.8,291.8z"/>
</svg>
