<?xml version="1.0" encoding="utf-8"?>
<!-- Generator: Adobe Illustrator 27.1.1, SVG Export Plug-In . SVG Version: 6.00 Build 0)  -->
<svg version="1.1" id="Capa_1" xmlns="http://www.w3.org/2000/svg" xmlns:xlink="http://www.w3.org/1999/xlink" x="0px" y="0px"
	 viewBox="0 0 350 350" style="enable-background:new 0 0 350 350;" xml:space="preserve">
<g>
	<path d="M175,311.1c-12.5,0-24.2-4.9-33.1-13.7L36.1,191.7C1.3,156.7,1.3,100,36.1,65.1C53,48.2,75.5,38.9,99.4,38.9
		c23.9,0,46.4,9.3,63.3,26.2L175,77.4l11-11c35.4-35.4,92.6-36.2,127.5-1.6c17.1,16.9,26.6,39.5,26.6,63.6
		c0,23.9-9.3,46.4-26.2,63.3L208.1,297.4C199.2,306.2,187.5,311.1,175,311.1z M99.4,71.7c-15.2,0-29.4,5.9-40,16.6
		c-22.1,22.1-22.1,58,0,80.2l105.8,105.7c5.3,5.3,14.5,5.3,19.8,0l105.7-105.7c10.7-10.7,16.6-24.9,16.6-40.1
		c0-15.2-6-29.6-16.8-40.3c-22.1-21.8-58.5-21.2-81.2,1.5L175,123.8l-35.5-35.5C128.8,77.6,114.6,71.7,99.4,71.7z"/>
</g>
</svg>
