<?xml version="1.0" encoding="utf-8"?>
<!-- Generator: Adobe Illustrator 27.1.1, SVG Export Plug-In . SVG Version: 6.00 Build 0)  -->
<svg version="1.1" id="Capa_1" xmlns="http://www.w3.org/2000/svg" xmlns:xlink="http://www.w3.org/1999/xlink" x="0px" y="0px"
	 viewBox="0 0 350 350" style="enable-background:new 0 0 350 350;" xml:space="preserve">
<g>
	<path d="M262.4,68.9c-10.7,0-19.3,8.7-19.3,19.3c0,10.7,8.7,19.3,19.3,19.3c10.7,0,19.3-8.7,19.3-19.3
		C281.7,77.6,273,68.9,262.4,68.9z"/>
	<path d="M176.4,93.7c-44.8,0-81.3,36.5-81.3,81.3c0,44.8,36.5,81.3,81.3,81.3s81.3-36.5,81.3-81.3
		C257.6,130.2,221.2,93.7,176.4,93.7z M176.4,227.1c-28.7,0-52.1-23.4-52.1-52.1c0-28.7,23.4-52.1,52.1-52.1s52.1,23.4,52.1,52.1
		C228.4,203.7,205.1,227.1,176.4,227.1z"/>
	<path d="M240.9,340H109.1C54.5,340,10,295.5,10,240.9V109.1C10,54.5,54.5,10,109.1,10h131.8c54.7,0,99.1,44.5,99.1,99.1v131.8
		C340,295.5,295.5,340,240.9,340z M109.1,41C71.6,41,41,71.6,41,109.1v131.8c0,37.5,30.5,68.1,68.1,68.1h131.8
		c37.5,0,68.1-30.5,68.1-68.1V109.1c0-37.5-30.5-68.1-68.1-68.1H109.1z"/>
</g>
</svg>
