<?xml version="1.0" encoding="utf-8"?>
<!-- Generator: Adobe Illustrator 27.1.1, SVG Export Plug-In . SVG Version: 6.00 Build 0)  -->
<svg version="1.1" id="Capa_1" xmlns="http://www.w3.org/2000/svg" xmlns:xlink="http://www.w3.org/1999/xlink" x="0px" y="0px"
	 viewBox="0 0 350 350" style="enable-background:new 0 0 350 350;" xml:space="preserve">
<g>
	<path d="M175,10C100.4,10,39.7,70.7,39.7,145.3c0,49.8,54.6,124.5,100.3,178.5c8.7,10.3,21.5,16.2,35,16.2c13.5,0,26.3-5.9,35-16.2
		c45.8-53.9,100.3-128.7,100.3-178.5C310.3,70.7,249.6,10,175,10z M182,300c-2.4,2.8-5.4,3.2-7,3.2c-1.6,0-4.6-0.4-7-3.2
		c-57.4-67.6-91.6-125.4-91.6-154.7c0-54.3,44.2-98.6,98.6-98.6c54.3,0,98.6,44.2,98.6,98.6C273.6,174.6,239.3,232.4,182,300z"/>
	<circle cx="175" cy="139.7" r="28"/>
</g>
</svg>
