<?xml version="1.0" encoding="utf-8"?>
<!-- Generator: Adobe Illustrator 27.1.1, SVG Export Plug-In . SVG Version: 6.00 Build 0)  -->
<svg version="1.1" id="Capa_1" xmlns="http://www.w3.org/2000/svg" xmlns:xlink="http://www.w3.org/1999/xlink" x="0px" y="0px"
	 viewBox="0 0 350 350" style="enable-background:new 0 0 350 350;" xml:space="preserve">
<path d="M287.1,44H62.9C33.7,44,10,67.7,10,96.8v131C10,271,45.1,306,88.1,306h173.7c43.1,0,78.1-35.1,78.1-78.1v-131
	C340,67.7,316.3,44,287.1,44z M278.3,79l-86.1,98.7c-4.4,5-10.5,7.8-17.2,7.8c-6.7,0-12.8-2.8-17.2-7.8L71.7,79H278.3z M261.9,271
	H88.1C64.3,271,45,251.7,45,227.9V101.6l86.4,99.1c11,12.6,26.9,19.8,43.6,19.8s32.6-7.2,43.6-19.8l86.5-99.1v126.3
	C305,251.7,285.7,271,261.9,271z"/>
</svg>
