<?xml version="1.0" encoding="utf-8"?>
<!-- Generator: Adobe Illustrator 27.1.1, SVG Export Plug-In . SVG Version: 6.00 Build 0)  -->
<svg version="1.1" id="Capa_1" xmlns="http://www.w3.org/2000/svg" xmlns:xlink="http://www.w3.org/1999/xlink" x="0px" y="0px"
	 viewBox="0 0 350 350" style="enable-background:new 0 0 350 350;" xml:space="preserve">
<style type="text/css">
	.st0{fill-rule:evenodd;clip-rule:evenodd;}
</style>
<g>
	<path d="M9.7,340.9l23.7-88.5C20,228.1,12.9,201,12.9,173.4c0-90.1,73.3-163.4,163.4-163.4c90.1,0,163.4,73.3,163.4,163.4
		c0,90.1-73.3,163.4-163.4,163.4c-27,0-53.8-6.8-77.7-19.8L9.7,340.9z M103.1,283.9l5.6,3.3c20.6,12.3,44,18.7,67.6,18.7
		c73.1,0,132.5-59.4,132.5-132.5c0-73.1-59.4-132.5-132.5-132.5c-73.1,0-132.5,59.4-132.5,132.5c0,24.1,6.7,47.9,19.4,68.7l3.4,5.6
		l-13.2,49.4L103.1,283.9z"/>
	<path class="st0" d="M237.1,196.2c-6.7-4-15.5-8.5-23.4-5.3c-6.1,2.5-10,12-13.9,16.9c-2,2.5-4.4,2.9-7.5,1.6
		c-22.8-9.1-40.3-24.3-52.9-45.3c-2.1-3.3-1.8-5.8,0.8-8.9c3.8-4.5,8.6-9.6,9.6-15.6c1-6-1.8-13.1-4.3-18.5
		c-3.2-6.9-6.8-16.7-13.6-20.5c-6.3-3.6-14.7-1.6-20.3,3c-9.7,7.9-14.4,20.3-14.3,32.6c0,3.5,0.5,7,1.3,10.4
		c2,8.1,5.7,15.7,9.9,22.9c3.2,5.4,6.6,10.7,10.4,15.8c12.2,16.6,27.4,31,45,41.8c8.8,5.4,18.2,10.1,28,13.3
		c11,3.6,20.8,7.4,32.6,5.2c12.4-2.4,24.7-10,29.6-22c1.5-3.5,2.2-7.5,1.4-11.2C253.8,204.5,243.3,199.9,237.1,196.2z"/>
</g>
</svg>
