<?xml version="1.0" encoding="utf-8"?>
<!-- Generator: Adobe Illustrator 27.1.1, SVG Export Plug-In . SVG Version: 6.00 Build 0)  -->
<svg version="1.1" id="Capa_1" xmlns="http://www.w3.org/2000/svg" xmlns:xlink="http://www.w3.org/1999/xlink" x="0px" y="0px"
	 viewBox="0 0 350 350" style="enable-background:new 0 0 350 350;" xml:space="preserve">
<path d="M203.6,163.3c29.6-11.5,50.7-40.3,50.7-73.9c0-43.7-35.6-79.3-79.3-79.3c-43.7,0-79.3,35.6-79.3,79.3
	c0,33.7,21.1,62.4,50.7,73.9C87.1,176.4,42.5,229.3,42.5,292.5c0,26.2,21.3,47.5,47.5,47.5H260c26.2,0,47.5-21.3,47.5-47.5
	C307.5,229.3,262.9,176.4,203.6,163.3z M130.1,89.3c0-24.7,20.1-44.8,44.8-44.8s44.8,20.1,44.8,44.8s-20.1,44.8-44.8,44.8
	S130.1,114.1,130.1,89.3z M260,305.5H90c-7.2,0-13-5.8-13-13c0-54,43.9-98,98-98c54,0,98,43.9,98,98
	C273,299.7,267.1,305.5,260,305.5z"/>
</svg>
